<?xml version="1.0" standalone="no"?>
<!DOCTYPE svg PUBLIC "-//W3C//DTD SVG 20010904//EN"
 "http://www.w3.org/TR/2001/REC-SVG-20010904/DTD/svg10.dtd">
<svg version="1.0" xmlns="http://www.w3.org/2000/svg"
 width="3460.000000pt" height="3460.000000pt" viewBox="0 0 3460.000000 3460.000000"
 preserveAspectRatio="xMidYMid meet">
<metadata>
Created by potrace 1.11, written by Peter Selinger 2001-2013
</metadata>
<g transform="translate(0.000000,3460.000000) scale(0.100000,-0.100000)"
fill="#000000" stroke="none">
<path d="M21368 34595 c-1 -1 -70 -6 -153 -9 -82 -4 -175 -9 -205 -11 -30 -2
-91 -7 -135 -10 -44 -3 -96 -7 -115 -9 -19 -2 -78 -7 -130 -11 -52 -4 -97 -8
-100 -10 -3 -1 -36 -6 -75 -10 -38 -4 -83 -8 -100 -10 -16 -2 -52 -6 -80 -10
-51 -5 -111 -13 -155 -20 -14 -2 -45 -7 -70 -10 -56 -8 -74 -10 -185 -29 -49
-8 -107 -17 -127 -20 -21 -3 -111 -20 -200 -36 -178 -34 -180 -34 -283 -56
-38 -9 -79 -17 -90 -19 -51 -11 -300 -70 -385 -92 -52 -14 -99 -26 -105 -27
-142 -36 -569 -162 -695 -206 -30 -11 -121 -42 -202 -70 -154 -52 -513 -188
-585 -221 -23 -10 -46 -19 -51 -19 -5 0 -22 -6 -38 -14 -16 -8 -85 -39 -154
-69 -69 -31 -152 -68 -185 -83 -33 -15 -62 -28 -65 -29 -15 -4 -171 -80 -370
-180 -246 -123 -615 -327 -821 -454 -15 -9 -67 -40 -115 -70 -163 -100 -654
-431 -709 -478 -5 -5 -26 -20 -45 -33 -158 -113 -489 -373 -660 -520 -30 -26
-91 -78 -135 -116 -44 -38 -85 -73 -91 -79 -6 -5 -51 -46 -100 -90 -347 -314
-823 -802 -1099 -1130 -37 -44 -79 -94 -94 -110 -14 -17 -46 -55 -71 -85 -25
-30 -47 -57 -50 -60 -8 -7 -246 -311 -313 -400 -31 -41 -61 -80 -66 -87 -19
-22 -267 -369 -334 -468 -241 -353 -547 -852 -707 -1150 -24 -44 -46 -84 -50
-90 -4 -5 -33 -59 -65 -120 -32 -60 -75 -142 -97 -182 l-39 -72 -82 -25 c-86
-25 -109 -30 -247 -51 -124 -20 -367 -93 -525 -158 -160 -66 -350 -176 -475
-276 -214 -170 -386 -387 -503 -631 -30 -63 -57 -124 -60 -135 -3 -11 -13 -40
-22 -65 -9 -25 -19 -52 -21 -60 -2 -8 -12 -47 -23 -86 -23 -85 -26 -100 -52
-269 -28 -180 -30 -558 -4 -762 23 -173 23 -177 10 -178 -58 -4 -231 -70 -295
-113 -14 -9 -28 -17 -31 -17 -3 0 -48 -31 -100 -70 -114 -84 -330 -297 -424
-420 -39 -49 -73 -94 -78 -100 -158 -198 -386 -613 -512 -930 -48 -121 -141
-388 -149 -428 -3 -12 -14 -52 -25 -89 -10 -37 -33 -129 -50 -205 -32 -144
-34 -157 -51 -263 -6 -36 -13 -76 -15 -90 -3 -14 -7 -52 -11 -85 -3 -33 -8
-71 -10 -85 -26 -155 -25 -749 1 -925 3 -16 7 -55 10 -85 3 -30 9 -77 15 -105
5 -27 11 -63 14 -80 11 -72 39 -206 57 -275 11 -41 27 -98 34 -127 34 -129
118 -371 174 -498 18 -39 29 -67 32 -83 3 -12 157 -313 187 -367 72 -127 238
-383 285 -440 8 -10 88 -114 127 -167 19 -25 19 -27 3 -33 -41 -14 -200 -292
-274 -475 -85 -213 -179 -543 -205 -720 -3 -19 -7 -42 -10 -51 -2 -9 -7 -34
-10 -55 -2 -22 -7 -50 -9 -64 -3 -14 -7 -45 -10 -70 -3 -25 -8 -58 -10 -75 -2
-16 -6 -61 -10 -100 -3 -38 -8 -95 -10 -125 -6 -68 -6 -373 0 -455 20 -285 88
-575 180 -768 16 -34 24 -62 19 -67 -5 -5 -67 -39 -139 -76 -71 -36 -152 -79
-180 -94 -27 -15 -75 -41 -105 -57 -30 -17 -71 -39 -90 -50 -19 -11 -60 -34
-92 -51 -74 -42 -364 -217 -454 -274 -193 -124 -292 -190 -429 -286 -82 -57
-163 -114 -180 -126 -16 -11 -32 -23 -35 -27 -3 -3 -59 -45 -125 -94 -66 -49
-122 -91 -125 -94 -3 -4 -50 -42 -105 -85 -131 -104 -399 -334 -511 -438 -230
-213 -555 -549 -744 -769 -12 -13 -31 -35 -43 -49 -12 -14 -60 -72 -106 -130
-46 -58 -87 -107 -91 -110 -3 -3 -44 -57 -90 -120 -47 -63 -87 -117 -90 -120
-3 -3 -30 -40 -60 -82 -162 -228 -266 -390 -428 -668 -183 -312 -405 -782
-529 -1120 -104 -284 -226 -682 -258 -840 -2 -8 -8 -33 -13 -55 -6 -22 -13
-51 -16 -65 -2 -14 -9 -45 -15 -70 -5 -25 -12 -58 -15 -75 -6 -32 -12 -64 -21
-105 -3 -14 -8 -42 -11 -64 -3 -21 -8 -48 -10 -60 -4 -22 -19 -117 -28 -176
-3 -19 -8 -62 -11 -95 -4 -33 -8 -67 -10 -75 -2 -8 -7 -53 -10 -100 -4 -47 -9
-96 -11 -110 -24 -145 -24 -916 0 -1060 2 -14 7 -62 11 -107 3 -46 8 -93 10
-105 3 -12 7 -44 10 -71 3 -27 14 -99 25 -160 10 -62 21 -129 25 -151 3 -21 7
-42 10 -46 3 -4 7 -25 11 -46 20 -132 149 -579 208 -719 7 -16 35 -82 61 -145
60 -143 152 -327 223 -444 47 -78 142 -224 164 -251 4 -5 38 -48 75 -95 206
-261 448 -462 718 -598 62 -30 255 -100 303 -108 15 -3 43 -9 62 -14 94 -25
345 -33 475 -16 127 16 285 60 430 119 41 17 203 99 244 125 l35 21 61 -92
c148 -222 297 -406 464 -569 280 -274 565 -431 897 -494 109 -20 466 -28 514
-11 8 3 38 8 65 11 28 3 61 8 75 11 55 11 85 16 92 16 4 0 26 6 48 14 22 8 40
13 40 11 0 -2 71 18 157 44 87 27 159 47 161 46 4 -4 -143 -577 -349 -1366
-106 -403 -139 -536 -139 -555 0 -11 8 -30 18 -41 55 -69 395 -326 627 -477
631 -408 1486 -774 2380 -1019 22 -6 60 -16 85 -24 56 -17 406 -104 440 -110
14 -3 63 -14 109 -25 72 -17 359 -78 441 -92 75 -14 148 -28 170 -32 34 -7
128 -23 170 -30 19 -3 60 -10 90 -15 30 -5 78 -12 105 -15 28 -4 57 -8 65 -10
14 -4 123 -21 200 -31 19 -2 49 -6 66 -9 17 -2 57 -7 90 -11 32 -3 61 -7 64
-9 3 -2 39 -6 80 -10 41 -4 83 -9 92 -10 9 -2 48 -7 85 -10 37 -4 79 -8 93
-10 14 -2 57 -6 95 -10 39 -3 86 -8 105 -10 19 -3 67 -7 105 -10 39 -3 88 -7
110 -10 22 -2 78 -7 125 -10 47 -3 112 -8 145 -10 33 -2 107 -7 165 -10 58 -3
134 -8 170 -10 301 -20 1356 -27 1730 -12 102 5 232 10 290 12 97 4 181 9 335
20 86 6 197 14 290 20 44 3 101 8 128 11 116 11 156 14 212 20 99 11 117 13
190 19 39 3 81 7 95 10 14 2 52 7 85 10 60 6 119 13 165 20 54 8 348 46 390
51 25 2 54 6 65 8 11 3 65 12 120 20 55 8 118 18 140 21 22 3 87 15 145 25 58
10 121 21 140 24 19 3 44 7 55 10 29 5 245 47 275 52 14 3 68 14 120 25 52 11
106 22 120 25 14 3 75 16 135 30 61 14 122 27 138 29 15 2 32 7 36 10 5 3 31
10 58 15 56 11 51 10 213 50 437 109 964 269 1350 411 185 67 307 113 345 129
11 5 49 21 85 36 36 14 79 32 95 39 148 63 168 71 330 143 107 48 516 256 640
326 274 155 537 325 761 492 65 49 121 91 124 94 3 3 27 24 55 45 195 156 474
424 600 576 11 14 43 51 70 84 56 66 57 67 148 205 149 224 294 495 411 770
31 74 61 144 67 155 16 36 79 207 120 325 69 202 120 394 154 580 4 19 8 150
10 290 3 235 7 354 20 580 5 80 7 112 20 258 10 110 14 168 20 242 3 41 8 86
10 100 2 14 7 59 10 100 3 41 8 86 10 100 3 14 7 52 10 85 7 79 30 286 40 360
2 17 6 50 9 75 5 41 52 395 61 465 36 259 123 798 177 1090 5 28 11 63 13 79
2 15 7 36 10 46 3 10 8 35 11 56 2 21 9 54 14 74 5 19 12 53 15 75 4 22 15 78
25 125 10 47 21 101 24 121 3 20 8 42 10 50 3 8 7 25 10 39 2 14 13 66 25 115
11 50 22 104 25 120 10 57 116 504 171 727 97 385 241 913 309 1128 14 41 39
122 56 180 89 293 339 1033 399 1176 11 27 45 117 76 199 52 138 134 342 219
548 56 134 210 484 261 592 26 55 61 129 77 165 47 105 307 618 354 702 24 43
44 79 44 82 0 2 20 39 45 80 25 42 45 79 45 82 0 5 108 192 159 276 9 14 34
57 55 95 22 37 60 100 84 138 25 39 61 95 80 125 255 397 509 753 842 1180
294 376 596 787 853 1162 98 142 347 521 378 575 9 15 46 75 83 131 36 57 66
105 66 106 0 2 43 74 96 161 96 158 263 450 344 600 113 209 160 299 281 545
72 146 139 281 149 300 10 19 55 118 100 220 45 102 88 199 96 215 19 43 136
328 167 408 15 37 39 97 53 134 98 250 245 688 333 993 49 173 126 462 135
510 2 14 16 72 29 130 29 118 96 446 103 500 2 19 11 71 19 115 15 85 59 393
69 485 11 97 17 154 21 185 2 17 7 68 10 115 4 47 8 103 11 125 25 264 25
1207 0 1342 -2 10 -7 63 -10 118 -4 55 -9 114 -11 130 -3 17 -7 53 -10 80 -10
91 -27 219 -40 303 -4 23 -8 52 -10 65 -1 12 -8 50 -14 84 -6 35 -13 73 -15
85 -2 13 -7 41 -11 63 -4 22 -20 103 -37 180 -16 77 -32 151 -34 165 -26 137
-153 582 -231 805 -44 128 -144 397 -152 410 -3 6 -6 12 -6 15 -2 37 -278 624
-382 813 -24 42 -47 85 -52 95 -95 172 -269 455 -389 632 -86 125 -261 371
-272 380 -3 3 -31 39 -62 80 -32 42 -65 84 -75 95 -10 11 -34 40 -53 65 -33
42 -210 251 -234 276 -6 6 -45 49 -86 95 -154 173 -528 540 -744 730 -21 19
-44 39 -50 44 -326 291 -936 732 -1391 1006 -49 30 -99 59 -110 66 -11 7 -31
18 -45 25 -14 7 -27 15 -30 18 -3 3 -21 13 -40 24 -19 10 -105 57 -190 103
-260 143 -620 319 -880 430 -58 25 -121 52 -140 60 -19 8 -44 19 -55 23 -11 4
-36 15 -55 23 -423 180 -1152 413 -1680 538 -47 12 -92 22 -100 24 -87 22
-463 99 -530 110 -33 5 -52 9 -110 20 -14 3 -43 8 -65 11 -22 3 -51 8 -65 10
-62 12 -148 26 -180 30 -19 2 -80 11 -135 19 -55 8 -125 17 -155 20 -30 3 -66
8 -80 10 -14 2 -56 7 -95 10 -38 4 -77 8 -86 10 -9 2 -56 6 -105 10 -49 3
-100 8 -114 10 -14 2 -56 6 -95 9 -123 9 -248 18 -325 22 -90 6 -1067 14
-1072 9z"/>
</g>
</svg>
